<?xml version="1.0" encoding="UTF-8"?> <svg xmlns="http://www.w3.org/2000/svg" id="Слой_1" data-name="Слой 1" viewBox="0 0 210.35 44.86"> <defs> <style>.cls-1{fill:#fff;}</style> </defs> <title>Лого_белый_ сиб сети</title> <path class="cls-1" d="M32.24,33.56c0-4-1.47-8.79-6.27-8.77h-.34a5.51,5.51,0,0,0-3.15,1.13c-1.12,1-1.65,2.49-2.37,4h0l0,.07h0L20,30A9.93,9.93,0,0,1,18.82,32a9.51,9.51,0,0,1-7.71,3.35h0A9.55,9.55,0,0,1,3.38,32Q.57,28.74.56,22.88t2.75-9.15a8.93,8.93,0,0,1,4.82-3,13,13,0,0,1,6.32.12,8.85,8.85,0,0,1,4.3,2.8,12,12,0,0,1,2.58,6.08H17c-.61-3.12-2.56-5.68-6-5.67-4.85,0-6.23,4.72-6.22,8.76s1.47,8.79,6.27,8.77h.19a5.88,5.88,0,0,0,2.93-.83c1.39-1,1.95-2.6,2.74-4.23l0,0c.11-.22.22-.45.35-.67a8.79,8.79,0,0,1,.93-1.42A9.51,9.51,0,0,1,26,21.1h0a9.55,9.55,0,0,1,7.7,3.29q2.81,3.3,2.82,9.16T33.74,42.7a9,9,0,0,1-5,3,13.31,13.31,0,0,1-5.44,0,8.93,8.93,0,0,1-5.06-3,12,12,0,0,1-2.58-6.08H20c.61,3.12,2.56,5.68,6,5.67,4.85,0,6.23-4.72,6.22-8.76" transform="translate(-0.56 -1.14)"></path> <polygon class="cls-1" points="8.27 0 11.39 7.55 7.92 7.56 0.95 0.01 8.27 0"></polygon> <path class="cls-1" d="M43.91,25.61c0,5.16,2.11,7.82,6.15,7.82a8.94,8.94,0,0,0,3.85-.72l-.66-1.65a9.06,9.06,0,0,1-2.94.49c-2.45,0-4.17-1.21-4.17-5.92s1.71-6,4.17-6a8.23,8.23,0,0,1,2.73.49l.63-1.61a7.86,7.86,0,0,0-3.62-.72C46,17.79,43.91,20.5,43.91,25.61Z" transform="translate(-0.56 -1.14)"></path> <path class="cls-1" d="M64.82,18.08l-4.25,7.8a33.92,33.92,0,0,0-2.05,4.52h-.06s.15-2.18.15-5.35v-7H56.45V33.15H59l4.27-8a40.76,40.76,0,0,0,2-4.21h.06s-.17,1.56-.17,5.14v7.08h2.14V18.08Z" transform="translate(-0.56 -1.14)"></path> <path class="cls-1" d="M72.72,25.86H76a2.49,2.49,0,0,1,2.69,2.81A2.5,2.5,0,0,1,76,31.48H72.72Zm-2.16-7.78V33.15h5.81a4.22,4.22,0,0,0,4.5-4.48,4.21,4.21,0,0,0-4.5-4.48H72.72V19.94h6.6V18.08Z" transform="translate(-0.56 -1.14)"></path> <path class="cls-1" d="M91.77,18.08l-4.25,7.8a33.88,33.88,0,0,0-2.05,4.52h-.06s.15-2.18.15-5.35v-7H83.4V33.15H86l4.27-8a40.7,40.7,0,0,0,2-4.21h.06s-.17,1.56-.17,5.14v7.08h2.14V18.08Z" transform="translate(-0.56 -1.14)"></path> <path class="cls-1" d="M99.68,25.56V19.87h3.09c1.67,0,2.58,1.06,2.58,2.85s-.91,2.83-2.58,2.83Zm0,1.8H103a4.32,4.32,0,0,0,4.55-4.63A4.32,4.32,0,0,0,103,18.08H97.52V33.15h2.16Z" transform="translate(-0.56 -1.14)"></path> <path class="cls-1" d="M109.34,25.61c0,5.16,2.11,7.82,6.15,7.82a8.94,8.94,0,0,0,3.85-.72l-.66-1.65a9.06,9.06,0,0,1-2.94.49c-2.45,0-4.17-1.21-4.17-5.92s1.71-6,4.17-6a8.23,8.23,0,0,1,2.73.49l.63-1.61a7.86,7.86,0,0,0-3.62-.72C111.44,17.79,109.34,20.5,109.34,25.61Z" transform="translate(-0.56 -1.14)"></path> <polygon class="cls-1" points="125.03 23.38 123.48 23.38 123.48 16.93 121.33 16.93 121.33 32.01 123.48 32.01 123.48 25.11 125.03 25.11 129.74 32.01 132.26 32.01 126.82 24.02 131.62 16.93 129.38 16.93 125.03 23.38"></polygon> <path class="cls-1" d="M143.3,18.08,139,25.88A33.91,33.91,0,0,0,137,30.4h-.06s.15-2.18.15-5.35v-7h-2.16V33.15h2.58l4.27-8a40.73,40.73,0,0,0,2-4.21h.06s-.17,1.56-.17,5.14v7.08h2.14V18.08Z" transform="translate(-0.56 -1.14)"></path> <polygon class="cls-1" points="148.45 16.93 148.45 32.01 157.25 32.01 157.25 30.25 150.61 30.25 150.61 25.3 155.98 25.3 155.98 23.55 150.61 23.55 150.61 18.69 157.04 18.69 157.04 16.93 148.45 16.93"></polygon> <path class="cls-1" d="M164.67,25.61c0,5.16,2.11,7.82,6.15,7.82a8.94,8.94,0,0,0,3.85-.72L174,31.07a9.06,9.06,0,0,1-2.94.49c-2.45,0-4.17-1.21-4.17-5.92s1.71-6,4.17-6a8.23,8.23,0,0,1,2.73.49l.63-1.61a7.86,7.86,0,0,0-3.62-.72C166.76,17.79,164.67,20.5,164.67,25.61Z" transform="translate(-0.56 -1.14)"></path> <polygon class="cls-1" points="176.42 16.93 176.42 32.01 185.22 32.01 185.22 30.25 178.58 30.25 178.58 25.3 183.95 25.3 183.95 23.55 178.58 23.55 178.58 18.69 185 18.69 185 16.93 176.42 16.93"></polygon> <polygon class="cls-1" points="187.01 16.93 187.01 18.79 191.05 18.79 191.05 32.01 193.21 32.01 193.21 18.79 197.14 18.79 197.14 16.93 187.01 16.93"></polygon> <path class="cls-1" d="M208.44,18.08l-4.25,7.8a33.94,33.94,0,0,0-2.05,4.52h-.06s.15-2.18.15-5.35v-7h-2.16V33.15h2.58l4.27-8a40.68,40.68,0,0,0,2-4.21h.06s-.17,1.56-.17,5.14v7.08h2.14V18.08Z" transform="translate(-0.56 -1.14)"></path> </svg> 